<?xml version="1.0" encoding="utf-8"?>
<!-- Generator: Adobe Illustrator 26.0.3, SVG Export Plug-In . SVG Version: 6.00 Build 0)  -->
<svg version="1.1" id="Layer_1" xmlns="http://www.w3.org/2000/svg" xmlns:xlink="http://www.w3.org/1999/xlink" x="0px" y="0px"
	 width="36.5px" height="30px" viewBox="0 0 36.5 30" style="enable-background:new 0 0 36.5 30;" xml:space="preserve">
<style type="text/css">
	.st0{fill-rule:evenodd;clip-rule:evenodd;fill:#FFFFFF;}
</style>
<path id="twt" class="st0" d="M36.5,3.9c-0.9,1.2-2,2.4-3.2,3.4c-0.3,0.3-0.4,0.7-0.3,1c0,3.4-0.8,6.8-2.4,9.9
	c-3.3,6.5-8.5,10.5-15.8,11.5c-4.8,0.8-9.7-0.1-14-2.5c-0.3-0.1-0.6-0.4-0.8-0.7c3.7,0.3,7.4-0.7,10.5-2.9c-0.2-0.2-0.5-0.3-0.8-0.3
	c-2.4-0.5-4.5-2.1-5.5-4.3c-0.4-0.8-0.3-0.9,0.6-0.9c0.6,0,1.2-0.1,2-0.1c-0.6-0.3-1-0.4-1.5-0.7c-2.2-1.2-3.8-3.4-4.1-5.9
	c-0.1-0.9,0-1,0.9-0.7c0.7,0.3,1.4,0.4,2.1,0.5c-0.4-0.4-0.6-0.6-0.9-0.9C1.2,8.3,0.7,5.1,1.9,2.3C2.2,1.4,2.3,1.4,3,2.1
	c2.6,2.8,5.8,5,9.5,6.2c1.5,0.5,2.9,0.8,4.5,0.9c0.7,0.1,0.9-0.1,0.8-0.8c-0.3-2.5,0.7-4.9,2.6-6.5c2.7-2.4,6.8-2.5,9.6-0.3
	c0.6,0.6,1.6,0.8,2.4,0.4c0.8-0.4,1.7-0.7,2.5-1c0.2-0.1,0.5-0.3,0.7-0.1c0.2,0.2,0,0.5-0.1,0.7c-0.6,1.2-1.4,2.2-2.4,3
	c1.2-0.2,2.5-0.5,3.6-0.9L36.5,3.9L36.5,3.9z"/>
</svg>
