<?xml version="1.0" encoding="utf-8"?>
<!-- Generator: Adobe Illustrator 26.0.3, SVG Export Plug-In . SVG Version: 6.00 Build 0)  -->
<svg version="1.1" id="Layer_1" xmlns="http://www.w3.org/2000/svg" xmlns:xlink="http://www.w3.org/1999/xlink" x="0px" y="0px"
	 width="36.1px" height="32.5px" viewBox="0 0 36.1 32.5" style="enable-background:new 0 0 36.1 32.5;" xml:space="preserve">
<style type="text/css">
	.st0{fill-rule:evenodd;clip-rule:evenodd;fill:#FFFFFF;}
</style>
<path class="st0" d="M17.2,32.5h-7.1c-5.4,0.1-9.9-4-10.1-9.4c-0.1-0.4,0.1-0.8,0.5-0.9c0.1,0,0.2,0,0.3,0c2.5,0,5,0,7.5,0
	c0.4,0,0.8,0.3,0.8,0.7c0,0,0,0.1,0,0.1c0.1,1.7,1.5,3,3.2,2.9c0.1,0,0.2,0,0.3,0c0.9,0,1.9,0,2.8,0c0.4,0.1,0.8-0.1,0.8-0.5
	c0-0.1,0-0.2,0-0.3c-0.1-2.8,0.4-2.3-2.3-2.4c-0.5,0-0.9,0-1.4,0c-0.7,0-0.8-0.2-0.4-0.9c0.8-1.2,1.5-2.4,2.1-3.6
	c1.1-2.3,1.4-4.9,0.7-7.3c-0.6-2.5-1.5-4.9-2.7-7.2c-0.3-0.2-0.4-0.6-0.3-0.9c0.3-0.3,0.7,0,1.1,0.1c0.8,0.2,1.7,0.4,2.5,0.7
	c0.6,0.2,0.7,0,0.7-0.6c0-0.5,0-0.9,0.1-1.4C16.4,0.6,17.1,0,17.9,0c0.8,0,1.6,0.7,1.7,1.5c0,0.1,0,0.1,0,0.2
	c-0.6,2.3,1,3.5,2.5,4.7c1.9,1.6,3.4,3.5,4.4,5.7c0.9,1.9,0.8,4.2-0.4,6c-1,1.5-2.1,2.9-3.4,4.1c-0.5,0.4-1.2,0.5-1.8,0.4
	c-1.2,0-1.2,0-1.2,1.2c0,2.3-0.3,1.9,1.9,2c1.6,0.2,3.3-0.5,4.3-1.8c0.6-0.7,1.4-1.2,2.3-1.4c2.3-0.6,4.6-1.3,6.8-2
	c1-0.3,1.1-0.2,1.1,0.8c0.2,0.8-0.3,1.6-1.1,1.9c-1.4,0.6-2.5,1.6-3.2,2.9c-0.8,1.4-1.7,2.8-2.7,4.1c-1.1,1.5-2.8,2.3-4.7,2.3
	C22,32.5,19.6,32.5,17.2,32.5z M6.3,19c-1,0-1.9,0-2.9,0c-0.4,0.1-0.8,0-1.1-0.2c-0.1-0.4,0.1-0.8,0.4-1c1.9-3,3.9-6.1,5.8-9.1
	c0.4-0.6,0.8-1.2,1.2-1.8s0.7-0.6,0.9,0c1,2.1,1.6,4.4,1.8,6.8c0.1,1.9-0.9,3.5-1.9,5.1C10.3,19,9.9,19.1,9.6,19H6.3L6.3,19z"/>
</svg>
